# xmcd
# Track frame offsets:
# 150
# 18185
# 36807
# 57962
# 71985
# 91667
# 110838
# 128966
# 144780
# 162584
# 178168
# 196395
# 213230
# 229697
# 244867
# 261142
# 279357
# 279902
# 280453
# 281003
# 281990
# 283342
# 284498
# 285771
# 286943
# 288413
# 289811
# 290767
# 292174
# 293311
# 294203
# 295487
# 296377
# 297777
# 299287
#
# Disc length: 4007 seconds
# Revision: 0
# Processed by: cddbd v1.5.1PL0 Copyright (c) Steve Scherf et al.
# Submitted via: VisiTrax 2.9.10.228 - For more info visit www.synapsa.com
#
DISCID=5c0fa523
DTITLE=TM Century - GoldDisc GD1227
DYEAR=2005
DGENRE=Country
TTITLE0=Shania Twain - Don't
TTITLE1=Amy Dalley - I Would Cry
TTITLE2=Tim McGraw - Drugs Or Jesus
TTITLE3=Keith Anderson - Pickin' Wildflowers
TTITLE4=Rascal Flatts - Fast Cars And Freedom
TTITLE5=Bobby Pinson - Don't Ask Me How I Know
TTITLE6=Lonestar - Class Reunion (That Used To Be Us)
TTITLE7=Phil Vassar - I'll Take That As A Yes (The Hot Tub Song)
TTITLE8=Keith Urban - Making Memories Of Us
TTITLE9=Gretchen Wilson - Homewrecker
TTITLE10=Darryl Worley - If Something Should Happen
TTITLE11=Dierks Bentley - Lot Of Leavin' Left To Do
TTITLE12=SHeDAISY - Don't Worry 'Bout A Thing
TTITLE13=Blake Shelton - Goodbye Time
TTITLE14=Toby Keith - Honky Tonk U
TTITLE15=Big and Rich - Big Time
TTITLE16=* - *
TTITLE17=* - *
TTITLE18=* - *
TTITLE19=* - *
TTITLE20=* - *
TTITLE21=* - *
TTITLE22=* - *
TTITLE23=* - *
TTITLE24=* - *
TTITLE25=* - *
TTITLE26=* - *
TTITLE27=* - *
TTITLE28=* - *
TTITLE29=* - *
TTITLE30=* - *
TTITLE31=* - *
TTITLE32=* - *
TTITLE33=* - *
TTITLE34=* - *
EXTD=
EXTT0=
EXTT1=
EXTT2=
EXTT3=
EXTT4=
EXTT5=
EXTT6=
EXTT7=
EXTT8=
EXTT9=
EXTT10=
EXTT11=
EXTT12=
EXTT13=
EXTT14=
EXTT15=
EXTT16=
EXTT17=
EXTT18=
EXTT19=
EXTT20=
EXTT21=
EXTT22=
EXTT23=
EXTT24=
EXTT25=
EXTT26=
EXTT27=
EXTT28=
EXTT29=
EXTT30=
EXTT31=
EXTT32=
EXTT33=
EXTT34=
PLAYORDER=
